<svg width="31" height="33" viewBox="0 0 31 33" fill="none" xmlns="http://www.w3.org/2000/svg">
<path d="M15.3498 11.6578C14.1523 11.6578 13.0039 12.159 12.1572 13.0512C11.3105 13.9434 10.8348 15.1534 10.8348 16.4152C10.8348 17.6769 11.3105 18.887 12.1572 19.7792C13.0039 20.6714 14.1523 21.1726 15.3498 21.1726C16.5472 21.1726 17.6957 20.6714 18.5424 19.7792C19.3891 18.887 19.8648 17.6769 19.8648 16.4152C19.8648 15.1534 19.3891 13.9434 18.5424 13.0512C17.6957 12.159 16.5472 11.6578 15.3498 11.6578ZM15.3498 8.48616C17.3455 8.48616 19.2596 9.32153 20.6708 10.8085C22.082 12.2955 22.8748 14.3123 22.8748 16.4152C22.8748 18.5181 22.082 20.5349 20.6708 22.0219C19.2596 23.5088 17.3455 24.3442 15.3498 24.3442C13.354 24.3442 11.44 23.5088 10.0288 22.0219C8.61761 20.5349 7.8248 18.5181 7.8248 16.4152C7.8248 14.3123 8.61761 12.2955 10.0288 10.8085C11.44 9.32153 13.354 8.48616 15.3498 8.48616ZM25.1323 8.0897C25.1323 8.61543 24.9341 9.11963 24.5813 9.49137C24.2285 9.86312 23.75 10.072 23.251 10.072C22.7521 10.072 22.2736 9.86312 21.9208 9.49137C21.568 9.11963 21.3698 8.61543 21.3698 8.0897C21.3698 7.56398 21.568 7.05978 21.9208 6.68804C22.2736 6.31629 22.7521 6.10745 23.251 6.10745C23.75 6.10745 24.2285 6.31629 24.5813 6.68804C24.9341 7.05978 25.1323 7.56398 25.1323 8.0897ZM15.3498 3.72874C11.6264 3.72874 11.0184 3.73984 9.28615 3.82072C8.10623 3.87939 7.3146 4.0459 6.58016 4.3472C5.92699 4.61362 5.45593 4.93237 4.95477 5.46203C4.48371 5.94157 4.12153 6.52703 3.89525 7.17469C3.6093 7.95174 3.45127 8.78429 3.39709 10.026C3.31883 11.7767 3.3098 12.3888 3.3098 16.4152C3.3098 20.3385 3.32034 20.9791 3.39709 22.8044C3.45278 24.0461 3.6108 24.8818 3.89525 25.6541C4.1511 26.3439 4.4521 26.8403 4.95176 27.3668C5.45894 27.8996 5.93001 28.2183 6.57715 28.4816C7.32062 28.7845 8.11225 28.9526 9.28615 29.0096C10.9477 29.0921 11.5286 29.1016 15.3498 29.1016C19.0732 29.1016 19.6812 29.0905 21.4134 29.0096C22.5903 28.951 23.3835 28.7845 24.1179 28.4847C24.7696 28.2167 25.2437 27.898 25.7433 27.3715C26.2505 26.8371 26.553 26.3407 26.8028 25.6588C27.0888 24.877 27.2483 24.0413 27.3025 22.8044C27.3808 21.0537 27.3898 20.4415 27.3898 16.4152C27.3898 12.4919 27.3792 11.8512 27.3025 10.026C27.2468 8.78587 27.0888 7.94857 26.8028 7.17469C26.576 6.52769 26.2145 5.94246 25.7448 5.46203C25.2899 4.96542 24.7342 4.58375 24.1194 4.34562C23.382 4.04431 22.5903 3.87781 21.4134 3.82072C19.7519 3.73825 19.171 3.72874 15.3498 3.72874ZM15.3498 0.557129C19.4389 0.557129 19.9491 0.572987 21.5534 0.652277C23.1562 0.731567 24.2473 0.996397 25.2075 1.38968C26.2008 1.79247 27.0376 2.33799 27.8744 3.21811C28.6397 4.01085 29.2318 4.96977 29.6097 6.02816C29.9814 7.03832 30.2342 8.18961 30.3095 9.87849C30.3802 11.569 30.3998 12.1065 30.3998 16.4152C30.3998 20.7238 30.3847 21.2614 30.3095 22.9519C30.2342 24.6408 29.9814 25.7905 29.6097 26.8022C29.2329 27.8612 28.6406 28.8203 27.8744 29.6123C27.1218 30.4184 26.2118 31.0423 25.2075 31.4407C24.2488 31.8324 23.1562 32.0988 21.5534 32.1781C19.9491 32.2526 19.4389 32.2732 15.3498 32.2732C11.2607 32.2732 10.7505 32.2574 9.14619 32.1781C7.54336 32.0988 6.45224 31.8324 5.49205 31.4407C4.4872 31.0434 3.57698 30.4193 2.82519 29.6123C2.05976 28.8196 1.46758 27.8607 1.08993 26.8022C0.716689 25.792 0.465354 24.6408 0.390105 22.9519C0.31937 21.2614 0.299805 20.7238 0.299805 16.4152C0.299805 12.1065 0.314855 11.569 0.390105 9.87849C0.465354 8.18802 0.716689 7.0399 1.08993 6.02816C1.46653 4.96912 2.05885 4.00994 2.82519 3.21811C3.5772 2.4113 4.48736 1.78728 5.49205 1.38968C6.45224 0.996397 7.54186 0.731567 9.14619 0.652277C10.7505 0.577744 11.2607 0.557129 15.3498 0.557129Z" fill="#101010"/>
</svg>
