<svg aria-hidden="true" style="position: absolute; width: 0; height: 0; overflow: hidden;" version="1.1" xmlns="http://www.w3.org/2000/svg" xmlns:xlink="http://www.w3.org/1999/xlink">
<defs>
<symbol id="icon-burgerBtn" viewBox="0 0 36 32">
<path fill="#838383" style="fill: var(--color1, #838383)" d="M0 0h35.556v4h-35.556v-4zM0 14h35.556v4h-35.556v-4zM0 28h35.556v4h-35.556v-4z"></path>
</symbol>
<symbol id="icon-heart" viewBox="0 0 34 32">
<path d="M16.844 2.575c3.956-3.552 10.070-3.434 13.881 0.384 3.81 3.82 3.941 9.903 0.397 13.871l-14.282 14.302-14.279-14.302c-3.544-3.968-3.411-10.061 0.397-13.871 3.815-3.813 9.917-3.941 13.885-0.384v0zM28.34 5.339c-2.526-2.53-6.602-2.632-9.246-0.258l-2.248 2.018-2.25-2.016c-2.653-2.378-6.72-2.274-9.253 0.259-2.509 2.509-2.636 6.526-0.323 9.181l11.823 11.842 11.823-11.84c2.314-2.656 2.188-6.668-0.325-9.186v0z"></path>
</symbol>
<symbol id="icon-star" viewBox="0 0 35 32">
<path fill="#ffce7f" style="fill: var(--color2, #ffce7f)" d="M17.568 25.391l-10.032 6.064 2.727-11.316-8.926-7.567 11.717-0.929 4.514-10.742 4.514 10.742 11.719 0.929-8.928 7.567 2.727 11.316-10.032-6.064z"></path>
</symbol>
<symbol id="icon-phone" viewBox="0 0 23 32">
<path fill="#838383" style="fill: var(--color1, #838383)" d="M3.265 3.2v25.6h16.326v-25.6h-16.326zM1.633 0h19.592c0.433 0 0.848 0.169 1.154 0.469s0.478 0.707 0.478 1.131v28.8c0 0.424-0.172 0.831-0.478 1.131s-0.722 0.469-1.154 0.469h-19.592c-0.433 0-0.848-0.169-1.154-0.469s-0.478-0.707-0.478-1.131v-28.8c0-0.424 0.172-0.831 0.478-1.131s0.721-0.469 1.154-0.469zM11.429 24c0.433 0 0.848 0.169 1.154 0.469s0.478 0.707 0.478 1.131c0 0.424-0.172 0.831-0.478 1.131s-0.721 0.469-1.154 0.469-0.848-0.169-1.154-0.469c-0.306-0.3-0.478-0.707-0.478-1.131s0.172-0.831 0.478-1.131c0.306-0.3 0.721-0.469 1.154-0.469z"></path>
</symbol>
<symbol id="icon-basket" viewBox="0 0 31 32">
<path d="M5.23 7.739l-4.608-4.532 2.011-1.978 4.607 4.533h21.658c0.221 0 0.44 0.051 0.638 0.149s0.37 0.24 0.502 0.415 0.221 0.378 0.26 0.592c0.038 0.215 0.025 0.435-0.038 0.644l-3.41 11.183c-0.088 0.288-0.268 0.541-0.513 0.72s-0.543 0.277-0.849 0.277h-17.415v2.796h15.63v2.796h-17.051c-0.377 0-0.738-0.147-1.005-0.409s-0.416-0.618-0.416-0.989v-16.196zM8.072 8.558v8.388h16.358l2.558-8.387h-18.915zM7.361 30.925c-0.565 0-1.107-0.221-1.507-0.614s-0.624-0.927-0.624-1.483c0-0.556 0.225-1.090 0.624-1.483s0.942-0.614 1.507-0.614c0.565 0 1.107 0.221 1.507 0.614s0.624 0.927 0.624 1.483c0 0.556-0.225 1.089-0.624 1.483s-0.942 0.614-1.507 0.614zM24.412 30.925c-0.565 0-1.107-0.221-1.507-0.614s-0.624-0.927-0.624-1.483c0-0.556 0.224-1.090 0.624-1.483s0.942-0.614 1.507-0.614 1.107 0.221 1.507 0.614c0.4 0.393 0.624 0.927 0.624 1.483s-0.224 1.089-0.624 1.483c-0.4 0.393-0.942 0.614-1.507 0.614z"></path>
</symbol>
<symbol id="icon-favorites" viewBox="0 0 37 32">
<path d="M18.379 2.647c4.134-3.651 10.523-3.53 14.506 0.395 3.981 3.926 4.118 10.179 0.415 14.258l-14.925 14.701-14.921-14.701c-3.703-4.079-3.564-10.342 0.415-14.258 3.986-3.919 10.363-4.051 14.509-0.395zM30.392 5.488c-2.64-2.6-6.899-2.706-9.662-0.265l-2.35 2.074-2.351-2.072c-2.772-2.444-7.022-2.337-9.669 0.267-2.622 2.579-2.754 6.708-0.338 9.436l12.355 12.172 12.355-12.17c2.418-2.73 2.286-6.854-0.34-9.442z"></path>
</symbol>
<symbol id="icon-Instagram" viewBox="0 0 30 32">
<path d="M14.885 11.305c-1.161 0-2.275 0.486-3.096 1.351s-1.282 2.039-1.282 3.262c0 1.223 0.461 2.397 1.282 3.262s1.935 1.351 3.096 1.351c1.161 0 2.275-0.486 3.096-1.351s1.282-2.039 1.282-3.262c0-1.224-0.461-2.397-1.282-3.262s-1.935-1.351-3.096-1.351zM14.885 8.229c1.935 0 3.791 0.81 5.16 2.252s2.137 3.398 2.137 5.437c0 2.039-0.769 3.995-2.137 5.437s-3.225 2.252-5.16 2.252c-1.935 0-3.791-0.81-5.16-2.252s-2.137-3.398-2.137-5.437 0.769-3.995 2.137-5.437c1.368-1.442 3.224-2.252 5.16-2.252zM24.371 7.845c0 0.51-0.192 0.999-0.534 1.359s-0.806 0.563-1.29 0.563c-0.484 0-0.948-0.203-1.29-0.563s-0.534-0.849-0.534-1.359c0-0.51 0.192-0.999 0.534-1.359s0.806-0.563 1.29-0.563c0.484 0 0.948 0.202 1.29 0.563s0.534 0.849 0.534 1.359zM14.885 3.616c-3.611 0-4.2 0.011-5.88 0.089-1.144 0.057-1.912 0.218-2.624 0.511-0.633 0.258-1.090 0.567-1.576 1.081-0.457 0.465-0.808 1.033-1.027 1.661-0.277 0.753-0.431 1.561-0.483 2.765-0.076 1.698-0.085 2.291-0.085 6.196 0 3.804 0.010 4.426 0.085 6.196 0.054 1.204 0.207 2.014 0.483 2.763 0.248 0.669 0.54 1.15 1.024 1.661 0.492 0.517 0.949 0.826 1.576 1.081 0.721 0.294 1.489 0.457 2.627 0.512 1.611 0.080 2.175 0.089 5.88 0.089 3.611 0 4.2-0.011 5.88-0.089 1.141-0.057 1.91-0.218 2.623-0.509 0.632-0.26 1.092-0.569 1.576-1.079 0.492-0.518 0.785-1 1.027-1.661 0.277-0.758 0.432-1.569 0.485-2.768 0.076-1.698 0.085-2.291 0.085-6.196 0-3.804-0.010-4.426-0.085-6.196-0.054-1.203-0.207-2.014-0.485-2.765-0.22-0.627-0.57-1.195-1.026-1.661-0.441-0.482-0.98-0.852-1.576-1.083-0.715-0.292-1.483-0.454-2.624-0.509-1.611-0.080-2.174-0.089-5.88-0.089zM14.885 0.54c3.965 0 4.46 0.015 6.016 0.092 1.554 0.077 2.612 0.334 3.543 0.715 0.963 0.391 1.775 0.92 2.586 1.773 0.742 0.769 1.316 1.699 1.683 2.725 0.36 0.98 0.606 2.096 0.679 3.734 0.069 1.639 0.088 2.16 0.088 6.339s-0.015 4.699-0.088 6.339c-0.073 1.638-0.318 2.753-0.679 3.734-0.365 1.027-0.94 1.957-1.683 2.725-0.73 0.782-1.612 1.387-2.586 1.773-0.93 0.38-1.989 0.638-3.543 0.715-1.556 0.072-2.050 0.092-6.016 0.092s-4.46-0.015-6.016-0.092c-1.554-0.077-2.612-0.335-3.543-0.715-0.974-0.385-1.857-0.99-2.586-1.773-0.742-0.769-1.316-1.699-1.683-2.725-0.362-0.98-0.606-2.096-0.679-3.734-0.069-1.639-0.088-2.161-0.088-6.339s0.015-4.699 0.088-6.339c0.073-1.639 0.317-2.753 0.679-3.734 0.365-1.027 0.94-1.957 1.683-2.725 0.729-0.782 1.612-1.387 2.586-1.773 0.931-0.381 1.988-0.638 3.543-0.715 1.556-0.072 2.050-0.092 6.016-0.092z"></path>
</symbol>
<symbol id="icon-Lang" viewBox="0 0 32 32">
<path fill="none" stroke="#838383" style="stroke: var(--color1, #838383)" stroke-linejoin="round" stroke-linecap="round" stroke-miterlimit="4" stroke-width="2.4" d="M2.666 16c0 7.364 5.969 13.333 13.333 13.333s13.333-5.969 13.333-13.333c0-7.364-5.969-13.333-13.333-13.333s-13.333 5.969-13.333 13.333z"></path>
<path fill="none" stroke="#838383" style="stroke: var(--color1, #838383)" stroke-linejoin="round" stroke-linecap="round" stroke-miterlimit="4" stroke-width="2.4" d="M17.333 2.734c0 0 4 5.267 4 13.267s-4 13.267-4 13.267"></path>
<path fill="none" stroke="#838383" style="stroke: var(--color1, #838383)" stroke-linejoin="round" stroke-linecap="round" stroke-miterlimit="4" stroke-width="2.4" d="M14.666 29.267c0 0-4-5.267-4-13.267s4-13.267 4-13.267"></path>
<path fill="none" stroke="#838383" style="stroke: var(--color1, #838383)" stroke-linejoin="round" stroke-linecap="round" stroke-miterlimit="4" stroke-width="2.4" d="M3.506 20.667h24.987"></path>
<path fill="none" stroke="#838383" style="stroke: var(--color1, #838383)" stroke-linejoin="round" stroke-linecap="round" stroke-miterlimit="4" stroke-width="2.4" d="M3.506 11.334h24.987"></path>
</symbol>
<symbol id="icon-Telegram" viewBox="0 0 30 32">
<path d="M14.594 28.22c3.096 0 6.066-1.296 8.256-3.603s3.42-5.436 3.42-8.699c0-3.263-1.23-6.392-3.42-8.699s-5.159-3.603-8.255-3.603-6.066 1.296-8.256 3.603c-2.19 2.307-3.42 5.436-3.42 8.699s1.23 6.392 3.42 8.699c2.19 2.307 5.159 3.603 8.256 3.603zM14.594 31.295c-8.060 0-14.594-6.884-14.594-15.377s6.534-15.378 14.594-15.378c8.060 0 14.594 6.885 14.594 15.378s-6.534 15.377-14.594 15.377zM10.055 17.717l-3.646-1.198c-0.788-0.254-0.792-0.826 0.177-1.236l14.204-5.782c0.825-0.354 1.292 0.094 1.024 1.215l-2.418 12.025c-0.169 0.857-0.658 1.061-1.337 0.666l-3.723-2.903-1.735 1.765c-0.178 0.181-0.323 0.337-0.597 0.375-0.273 0.040-0.498-0.046-0.662-0.523l-1.27-4.415-0.018 0.012v-0.002z"></path>
</symbol>
<symbol id="icon-VectorDown" viewBox="0 0 46 32">
<path d="M22.857 32l-22.857-24.001 7.623-7.999 15.235 16.003 15.235-16.003 7.623 7.999-22.857 24.001z"></path>
</symbol>
<symbol id="icon-VectorUp" viewBox="0 0 46 32">
<path d="M22.857 0l22.857 24.001-7.623 7.999-15.235-16.003-15.235 16.003-7.623-7.999 22.857-24.001z"></path>
</symbol>
<symbol id="icon-VK" viewBox="0 0 43 32">
<path d="M0 5.546c0-1.522 0.8-2.342 2.4-2.462l6.166 0.045c0.414 0 0.69 0.224 0.828 0.671 0.635 2.238 1.345 4.17 2.131 5.797s1.814 3.499 3.083 5.618c0.11 0.269 0.29 0.403 0.538 0.403 0.193 0 0.345-0.104 0.455-0.313l0.124-0.492 0.041-7.744c0-0.537-0.117-0.895-0.352-1.074s-0.669-0.313-1.303-0.403c-0.497-0.090-0.745-0.418-0.745-0.985 0-0.119 0.014-0.209 0.041-0.269 0.579-1.94 2.235-2.909 4.966-2.909l2.317-0.045c1.048 0 1.917 0.284 2.607 0.85s1.035 1.462 1.035 2.686v10.161c0.193 0.149 0.372 0.224 0.538 0.224 0.414 0 0.772-0.269 1.076-0.806 3.035-4.595 4.676-7.669 4.924-9.221 0-0.030 0.028-0.104 0.083-0.224 0.193-0.448 0.51-0.836 0.952-1.164s0.828-0.552 1.159-0.671c0.11-0.060 0.234-0.090 0.372-0.090h6.414l0.414 0.045c0.552 0 0.979 0.283 1.283 0.85 0.11 0.179 0.186 0.373 0.228 0.582s0.069 0.418 0.083 0.627 0.021 0.328 0.021 0.358v0.313c-0.193 1.223-0.683 2.529-1.469 3.917s-1.786 2.887-3 4.498c-1.214 1.611-1.972 2.671-2.276 3.178-0.248 0.358-0.372 0.686-0.372 0.985 0 0.239 0.11 0.507 0.331 0.806l6.042 8.236c0.331 0.477 0.497 1 0.497 1.567 0 0.686-0.248 1.253-0.745 1.701s-1.090 0.701-1.779 0.761l-0.703 0.045h-6.29c-0.028 0-0.083 0.007-0.166 0.022s-0.138 0.022-0.165 0.022c-0.607 0-1.173-0.283-1.697-0.85-0.193-0.239-1.49-1.999-3.89-5.282-0.138-0.209-0.331-0.403-0.579-0.582-0.11 0.477-0.255 1.164-0.434 2.059s-0.31 1.537-0.393 1.925l-0.124 0.761c-0.276 1.044-0.855 1.671-1.738 1.88l-0.579 0.045h-4.056c-2.29 0-4.573-1.134-6.849-3.402s-4.324-5.2-6.145-8.796c-1.821-3.596-3.517-7.781-5.090-12.555-0.138-0.388-0.207-0.821-0.207-1.298zM24.87 17.139c-0.579 0-1.104-0.172-1.573-0.515s-0.703-0.813-0.703-1.41v-10.295c0-0.597-0.138-1.022-0.414-1.276s-0.759-0.38-1.448-0.38l-2.359 0.090c-1.186 0-2.083 0.224-2.69 0.671 1.214 0.627 1.821 1.641 1.821 3.044v7.878c-0.055 0.746-0.331 1.365-0.828 1.858s-1.048 0.738-1.655 0.738c-0.828 0-1.462-0.433-1.903-1.298-2.152-3.521-3.752-6.863-4.8-10.026l-0.372-1.164-5.504-0.045c-0.359 0-0.559 0.022-0.6 0.067s-0.062 0.172-0.062 0.38c0 0.269 0.028 0.552 0.083 0.85l0.869 2.507c2.317 6.475 4.835 11.578 7.552 15.308s5.386 5.595 8.007 5.595h4.138c0.166 0 0.29-0.052 0.372-0.157s0.152-0.306 0.207-0.604l0.083-0.448 0.786-3.939c0.221-0.537 0.414-0.895 0.579-1.074 0.304-0.328 0.662-0.492 1.076-0.492 0.662 0 1.338 0.433 2.028 1.298l3.517 4.834c0.221 0.388 0.455 0.582 0.704 0.582h6.828c0.828 0 1.241-0.224 1.241-0.671 0-0.149-0.041-0.298-0.124-0.448l-6-8.102c-0.469-0.627-0.703-1.298-0.703-2.014s0.221-1.403 0.662-2.059c0.359-0.597 1.055-1.589 2.090-2.977s1.938-2.686 2.71-3.894c0.772-1.209 1.283-2.305 1.531-3.29l0.124-0.582c-0.028-0.060-0.041-0.157-0.041-0.291s-0.014-0.246-0.041-0.336h-6.497c-0.414 0.179-0.745 0.448-0.993 0.806l-0.248 0.85c-0.69 2.059-2.497 5.237-5.421 9.534-0.579 0.597-1.255 0.895-2.028 0.895z"></path>
</symbol>
<symbol id="icon-Whatsapp" viewBox="0 0 30 32">
<path d="M7.666 25.904l1.057 0.65c1.782 1.095 3.808 1.67 5.871 1.665 2.309 0 4.566-0.721 6.486-2.073s3.416-3.273 4.3-5.521c0.884-2.248 1.115-4.721 0.664-7.108s-1.562-4.578-3.195-6.299c-1.633-1.72-3.713-2.892-5.978-3.367s-4.612-0.231-6.746 0.7c-2.133 0.931-3.957 2.508-5.24 4.531s-1.968 4.401-1.968 6.835c0 2.208 0.55 4.326 1.582 6.188l0.616 1.113-0.953 3.692 3.503-1.007zM0.006 31.295l1.973-7.64c-1.3-2.348-1.983-5.019-1.979-7.738 0-8.493 6.534-15.378 14.594-15.378s14.594 6.885 14.594 15.378c0 8.493-6.534 15.377-14.594 15.377-2.579 0.004-5.113-0.715-7.341-2.084l-7.247 2.084zM9.327 8.703c0.196-0.015 0.393-0.015 0.588-0.006 0.079 0.006 0.158 0.015 0.236 0.025 0.232 0.028 0.487 0.177 0.573 0.383 0.435 1.040 0.858 2.087 1.267 3.137 0.090 0.234 0.036 0.534-0.136 0.826-0.118 0.198-0.246 0.388-0.384 0.572-0.165 0.223-0.52 0.632-0.52 0.632s-0.145 0.181-0.089 0.407c0.020 0.086 0.088 0.211 0.149 0.315l0.086 0.146c0.374 0.657 0.876 1.322 1.489 1.95 0.175 0.178 0.346 0.361 0.53 0.532 0.683 0.635 1.457 1.153 2.291 1.538l0.007 0.003c0.124 0.057 0.187 0.088 0.368 0.169 0.090 0.040 0.184 0.075 0.279 0.101 0.098 0.026 0.201 0.021 0.297-0.014s0.179-0.1 0.239-0.186c1.057-1.349 1.153-1.436 1.162-1.436v0.003c0.073-0.072 0.161-0.127 0.256-0.161s0.196-0.045 0.296-0.035c0.088 0.006 0.177 0.023 0.258 0.061 0.775 0.374 2.043 0.956 2.043 0.956l0.849 0.401c0.143 0.072 0.273 0.243 0.277 0.407 0.006 0.103 0.015 0.269-0.019 0.574-0.047 0.398-0.16 0.877-0.274 1.127-0.078 0.171-0.181 0.328-0.307 0.464-0.147 0.163-0.308 0.311-0.482 0.443-0.060 0.047-0.121 0.094-0.183 0.138-0.182 0.121-0.368 0.234-0.559 0.338-0.376 0.21-0.791 0.331-1.216 0.354-0.27 0.015-0.54 0.037-0.811 0.022-0.012 0-0.829-0.134-0.829-0.134-2.075-0.575-3.994-1.652-5.604-3.146-0.33-0.306-0.635-0.635-0.947-0.963-1.299-1.361-2.28-2.829-2.875-4.217-0.305-0.681-0.469-1.422-0.483-2.174-0.006-0.934 0.284-1.843 0.823-2.583 0.107-0.145 0.207-0.295 0.381-0.469 0.185-0.185 0.302-0.283 0.429-0.351 0.169-0.089 0.353-0.141 0.541-0.154l0.001 0.002z"></path>
</symbol>
</defs>
</svg>
