<svg width="31" height="33" viewBox="0 0 31 33" fill="none" xmlns="http://www.w3.org/2000/svg">
<path d="M15.05 29.1016C18.2432 29.1016 21.3056 27.765 23.5635 25.3859C25.8215 23.0067 27.09 19.7798 27.09 16.4152C27.09 13.0505 25.8215 9.82368 23.5635 7.44451C21.3056 5.06534 18.2432 3.72874 15.05 3.72874C11.8568 3.72874 8.79437 5.06534 6.53643 7.44451C4.27849 9.82368 3.01 13.0505 3.01 16.4152C3.01 19.7798 4.27849 23.0067 6.53643 25.3859C8.79437 27.765 11.8568 29.1016 15.05 29.1016ZM15.05 32.2732C6.73788 32.2732 0 25.1736 0 16.4152C0 7.65678 6.73788 0.557129 15.05 0.557129C23.3621 0.557129 30.1 7.65678 30.1 16.4152C30.1 25.1736 23.3621 32.2732 15.05 32.2732ZM10.3694 18.2706L6.60995 17.0352C5.79726 16.7736 5.79274 16.1837 6.79206 15.7602L21.4402 9.79762C22.2905 9.43288 22.7721 9.89435 22.4967 11.0504L20.0029 23.4514C19.8284 24.3347 19.3242 24.5456 18.6244 24.1381L14.7851 21.1441L12.9957 22.9646C12.8121 23.1517 12.6631 23.3119 12.3801 23.3515C12.0987 23.3927 11.8669 23.3039 11.6969 22.8123L10.3875 18.2595L10.3694 18.2722V18.2706Z" fill="#101010"/>
</svg>
