<svg width="31" height="23" viewBox="0 0 31 23" fill="none" xmlns="http://www.w3.org/2000/svg">
<path d="M0 3.98613C0 2.89228 0.575032 2.30246 1.7251 2.21667L6.15681 2.24884C6.45424 2.24884 6.65253 2.4097 6.75167 2.73142C7.20773 4.34002 7.71832 5.72877 8.28344 6.89768C8.84856 8.06659 9.58718 9.41245 10.4993 10.9353C10.5786 11.1283 10.7075 11.2248 10.886 11.2248C11.0248 11.2248 11.1338 11.1497 11.2131 10.9996L11.3024 10.6457L11.3321 5.07997C11.3321 4.69391 11.2478 4.43653 11.0793 4.30784C10.9107 4.17916 10.5984 4.08264 10.1424 4.0183C9.78547 3.95395 9.60701 3.71803 9.60701 3.31052C9.60701 3.22472 9.61692 3.16038 9.63675 3.11748C10.0532 1.72337 11.2429 1.02631 13.2059 1.02631L14.8715 0.994141C15.625 0.994141 16.2496 1.1979 16.7453 1.60541C17.2411 2.01292 17.4889 2.65635 17.4889 3.53572V10.8387C17.6277 10.946 17.7566 10.9996 17.8756 10.9996C18.173 10.9996 18.4308 10.8066 18.6489 10.4205C20.8301 7.11752 22.0099 4.90839 22.1883 3.79309C22.1883 3.77165 22.2082 3.71803 22.2478 3.63224C22.3866 3.31052 22.6146 3.03169 22.9319 2.79577C23.2492 2.55984 23.5268 2.39898 23.7647 2.31319C23.844 2.27029 23.9332 2.24884 24.0324 2.24884H28.6426L28.94 2.28102C29.3366 2.28102 29.6439 2.48477 29.862 2.89228C29.9413 3.02097 29.9959 3.16038 30.0256 3.31052C30.0554 3.46065 30.0752 3.61079 30.0851 3.76092C30.095 3.91106 30.1 3.99685 30.1 4.0183V4.2435C29.9612 5.12287 29.6092 6.06121 29.0441 7.05854C28.479 8.05587 27.7602 9.13363 26.8877 10.2918C26.0153 11.45 25.47 12.2114 25.2519 12.576C25.0734 12.8334 24.9842 13.0693 24.9842 13.2838C24.9842 13.4554 25.0635 13.6484 25.2221 13.8629L29.5646 19.7825C29.8025 20.1257 29.9215 20.501 29.9215 20.9085C29.9215 21.4018 29.7431 21.8093 29.3861 22.1311C29.0292 22.4528 28.6029 22.6351 28.1072 22.678L27.6016 22.7102H23.0806C23.0608 22.7102 23.0211 22.7155 22.9616 22.7262C22.9022 22.737 22.8625 22.7423 22.8427 22.7423C22.4064 22.7423 21.9999 22.5386 21.6232 22.1311C21.4844 21.9595 20.5525 20.6941 18.8274 18.3348C18.7282 18.1847 18.5894 18.0452 18.411 17.9166C18.3316 18.2597 18.2275 18.753 18.0987 19.3965C17.9698 20.0399 17.8756 20.501 17.8161 20.7798L17.7269 21.3268C17.5286 22.0774 17.1122 22.5279 16.4777 22.678L16.0613 22.7102H13.1464C11.5006 22.7102 9.85982 21.8951 8.22396 20.2651C6.58809 18.6351 5.11581 16.5278 3.80711 13.9433C2.49842 11.3588 1.27895 8.35078 0.148715 4.91911C0.0495718 4.64029 0 4.32929 0 3.98613ZM17.8756 12.3186C17.4592 12.3186 17.0824 12.1953 16.7453 11.9487C16.4083 11.702 16.2397 11.3642 16.2397 10.9353V3.53572C16.2397 3.10676 16.1406 2.80113 15.9423 2.61882C15.744 2.43651 15.397 2.34536 14.9013 2.34536L13.2059 2.4097C12.3533 2.4097 11.7089 2.57056 11.2726 2.89228C12.1451 3.34269 12.5813 4.07192 12.5813 5.07997V10.7422C12.5417 11.2784 12.3434 11.7235 11.9865 12.0774C11.6295 12.4312 11.233 12.6082 10.7967 12.6082C10.2019 12.6082 9.74581 12.2972 9.42855 11.6752C7.88191 9.14435 6.73185 6.74218 5.97835 4.4687L5.71067 3.63224L1.75484 3.60006C1.49707 3.60006 1.35331 3.61615 1.32357 3.64832C1.29382 3.68049 1.27895 3.77165 1.27895 3.92178C1.27895 4.11481 1.29878 4.31857 1.33844 4.53305L1.96304 6.33467C3.62865 10.9889 5.43802 14.6565 7.39115 17.3375C9.34428 20.0184 11.2627 21.3589 13.1464 21.3589H16.1207C16.2397 21.3589 16.3289 21.3214 16.3884 21.2463C16.4479 21.1713 16.4975 21.0265 16.5371 20.812L16.5966 20.4903L17.1617 17.6592C17.3204 17.2731 17.4592 17.0157 17.5781 16.8871C17.7963 16.6511 18.054 16.5332 18.3515 16.5332C18.8274 16.5332 19.3132 16.8442 19.8089 17.4661L22.337 20.9407C22.4957 21.2195 22.6642 21.3589 22.8427 21.3589H27.7503C28.3451 21.3589 28.6426 21.1981 28.6426 20.8764C28.6426 20.7691 28.6128 20.6619 28.5533 20.5546L24.2406 14.7315C23.9035 14.2811 23.735 13.7985 23.735 13.2838C23.735 12.769 23.8936 12.2757 24.2108 11.8039C24.4686 11.3749 24.9693 10.6618 25.7129 9.66446C26.4565 8.66713 27.1058 7.73415 27.661 6.86551C28.2162 5.99687 28.5831 5.20866 28.7615 4.50088L28.8508 4.08264C28.8309 4.03975 28.821 3.97004 28.821 3.87352C28.821 3.77701 28.8111 3.69658 28.7913 3.63224H24.1216C23.8242 3.76092 23.5862 3.95395 23.4078 4.21133L23.2293 4.82259C22.7336 6.3025 21.4348 8.5867 19.333 11.6752C18.9166 12.1042 18.4308 12.3186 17.8756 12.3186Z" fill="#101010"/>
</svg>
