<svg width="31" height="33" viewBox="0 0 31 33" fill="none" xmlns="http://www.w3.org/2000/svg">
<path d="M7.90577 26.7134L8.99539 27.3842C10.8329 28.5134 12.9228 29.1062 15.05 29.1016C17.4313 29.1016 19.7591 28.3576 21.7391 26.9636C23.719 25.5696 25.2622 23.5882 26.1735 21.2701C27.0848 18.9519 27.3232 16.4011 26.8586 13.9402C26.3941 11.4792 25.2474 9.21874 23.5636 7.44451C21.8797 5.67028 19.7344 4.46201 17.3989 3.9725C15.0634 3.483 12.6425 3.73423 10.4425 4.69444C8.24248 5.65464 6.36209 7.28069 5.03912 9.36697C3.71615 11.4532 3.01002 13.906 3.01002 16.4152C3.01002 18.6924 3.5774 20.876 4.64143 22.7964L5.27654 23.9446L4.29378 27.7521L7.90577 26.7134ZM0.00604013 32.2732L2.0408 24.3949C0.700052 21.9732 -0.0043504 19.2189 2.02155e-05 16.4152C2.02155e-05 7.65678 6.7379 0.557129 15.05 0.557129C23.3621 0.557129 30.1 7.65678 30.1 16.4152C30.1 25.1736 23.3621 32.2732 15.05 32.2732C12.3903 32.2777 9.77747 31.5361 7.47986 30.1245L0.00604013 32.2732ZM9.61846 8.97458C9.82013 8.95872 10.0233 8.95872 10.225 8.96824C10.3062 8.97458 10.3875 8.98409 10.4688 8.99361C10.7081 9.02215 10.9715 9.17597 11.0602 9.38847C11.5087 10.4605 11.9452 11.5404 12.3666 12.6235C12.4599 12.8646 12.4042 13.1738 12.2266 13.4751C12.1045 13.6788 11.9724 13.8757 11.8308 14.065C11.6607 14.295 11.295 14.7168 11.295 14.7168C11.295 14.7168 11.146 14.9039 11.2032 15.137C11.2243 15.2258 11.2935 15.3543 11.3567 15.4621L11.4455 15.6128C11.8308 16.2899 12.3485 16.9765 12.9806 17.6236C13.1612 17.8075 13.3373 17.9962 13.5269 18.1722C14.2313 18.8272 15.0289 19.3616 15.8898 19.758L15.8973 19.7612C16.0252 19.8199 16.09 19.8516 16.2766 19.9357C16.3699 19.9769 16.4662 20.0134 16.564 20.0403C16.6651 20.0674 16.7716 20.0623 16.8699 20.0256C16.9682 19.9889 17.054 19.9223 17.1164 19.8342C18.206 18.4434 18.3053 18.353 18.3143 18.353V18.3562C18.39 18.2818 18.48 18.2253 18.5781 18.1906C18.6762 18.1559 18.7803 18.1437 18.8832 18.1548C18.9735 18.1611 19.0653 18.1786 19.1496 18.2182C19.9488 18.6036 21.2566 19.2046 21.2566 19.2046L22.1325 19.6185C22.28 19.693 22.414 19.8691 22.4185 20.0387C22.4245 20.145 22.4335 20.3163 22.3989 20.6302C22.3507 21.041 22.2334 21.5341 22.116 21.7926C22.0356 21.969 21.9289 22.1307 21.7999 22.2715C21.6481 22.4396 21.4818 22.5924 21.3033 22.7283C21.2415 22.7772 21.1788 22.8248 21.1151 22.871C20.9279 22.9961 20.7356 23.1125 20.5387 23.2199C20.1512 23.4367 19.7233 23.5612 19.2851 23.5846C19.0066 23.6005 18.7282 23.6227 18.4483 23.6068C18.4362 23.6068 17.5934 23.4688 17.5934 23.4688C15.4537 22.8758 13.4749 21.7648 11.8143 20.2243C11.4741 19.9087 11.1596 19.5693 10.8375 19.2316C9.49806 17.8281 8.4867 16.3137 7.87266 14.8833C7.55837 14.1812 7.3886 13.4171 7.37451 12.641C7.36831 11.6781 7.667 10.7406 8.22333 9.97681C8.33319 9.82774 8.43704 9.67233 8.61613 9.49314C8.80727 9.30284 8.92767 9.20135 9.0586 9.13157C9.23269 9.03965 9.4226 8.98571 9.61696 8.97299L9.61846 8.97458Z" fill="#101010"/>
</svg>
